<svg xmlns="http://www.w3.org/2000/svg" xmlns:xlink="http://www.w3.org/1999/xlink" width="500" zoomAndPan="magnify" viewBox="0 0 375 374.999991" height="500" preserveAspectRatio="xMidYMid meet" version="1.2"><defs><clipPath id="ceb07bdc1f"><path d="M 0.75 0.75 L 375 0.75 L 375 375 L 0.75 375 Z M 0.75 0.75 "/></clipPath><clipPath id="9b0a6396eb"><path d="M 188.25 0.75 C 84.695312 0.75 0.75 84.695312 0.75 188.25 C 0.75 291.804688 84.695312 375.75 188.25 375.75 C 291.804688 375.75 375.75 291.804688 375.75 188.25 C 375.75 84.695312 291.804688 0.75 188.25 0.75 Z M 188.25 0.75 "/></clipPath><clipPath id="f4b935b286"><path d="M 114.066406 120.960938 L 215 120.960938 L 215 222 L 114.066406 222 Z M 114.066406 120.960938 "/></clipPath></defs><g id="005d6dcd18"><g clip-rule="nonzero" clip-path="url(#ceb07bdc1f)"><g clip-rule="nonzero" clip-path="url(#9b0a6396eb)"><path style=" stroke:none;fill-rule:nonzero;fill:#ffffff;fill-opacity:1;" d="M 0.75 0.75 L 375.75 0.75 L 375.75 375.75 L 0.75 375.75 Z M 0.75 0.75 "/></g></g><path style=" stroke:none;fill-rule:evenodd;fill:#374A6D;fill-opacity:1;" d="M 187.492188 0 C 83.902344 0 0 83.902344 0 187.492188 C 0 270.453125 53.667969 340.53125 128.195312 365.371094 C 137.570312 367.011719 141.085938 361.386719 141.085938 356.464844 C 141.085938 352.011719 140.851562 337.25 140.851562 321.546875 C 93.746094 330.21875 81.558594 310.0625 77.808594 299.515625 C 75.699219 294.125 66.558594 277.484375 58.589844 273.03125 C 52.027344 269.515625 42.652344 260.847656 58.355469 260.613281 C 73.121094 260.378906 83.667969 274.203125 87.183594 279.828125 C 104.058594 308.1875 131.007812 300.21875 141.789062 295.296875 C 143.429688 283.109375 148.351562 274.90625 153.742188 270.21875 C 112.027344 265.535156 68.433594 249.363281 68.433594 177.648438 C 68.433594 157.257812 75.699219 140.382812 87.652344 127.257812 C 85.777344 122.570312 79.214844 103.355469 89.527344 77.574219 C 89.527344 77.574219 105.230469 72.652344 141.085938 96.792969 C 156.085938 92.574219 172.023438 90.464844 187.960938 90.464844 C 203.894531 90.464844 219.832031 92.574219 234.832031 96.792969 C 270.6875 72.417969 286.390625 77.574219 286.390625 77.574219 C 296.703125 103.355469 290.140625 122.570312 288.265625 127.257812 C 300.21875 140.382812 307.484375 157.023438 307.484375 177.648438 C 307.484375 249.597656 263.660156 265.535156 221.941406 270.21875 C 228.738281 276.078125 234.597656 287.328125 234.597656 304.90625 C 234.597656 329.984375 234.363281 350.136719 234.363281 356.464844 C 234.363281 361.386719 237.878906 367.246094 247.253906 365.371094 C 321.3125 340.53125 374.980469 270.21875 374.980469 187.492188 C 374.980469 83.902344 291.078125 0 187.492188 0 Z M 187.492188 0 "/><path style=" stroke:none;fill-rule:nonzero;fill:#374A6D;fill-opacity:1;" d="M 243.886719 233.386719 L 213.105469 202.601562 C 209.089844 209.292969 202.398438 215.984375 195.707031 220 L 226.488281 250.785156 C 231.84375 256.136719 239.875 256.136719 243.886719 250.785156 C 249.242188 246.769531 249.242188 238.738281 243.886719 233.386719 Z M 243.886719 233.386719 "/><g clip-rule="nonzero" clip-path="url(#f4b935b286)"><path style=" stroke:none;fill-rule:nonzero;fill:#374A6D;fill-opacity:1;" d="M 214.445312 171.820312 C 214.445312 143.714844 191.691406 120.960938 164.921875 120.960938 C 136.816406 120.960938 114.066406 143.714844 114.066406 171.820312 C 114.066406 198.585938 136.816406 221.339844 164.921875 221.339844 C 191.691406 221.339844 214.445312 198.585938 214.445312 171.820312 Z M 164.921875 209.292969 C 143.507812 209.292969 126.109375 191.894531 126.109375 171.820312 C 126.109375 150.40625 143.507812 133.007812 164.921875 133.007812 C 185 133.007812 202.398438 150.40625 202.398438 171.820312 C 202.398438 191.894531 185 209.292969 164.921875 209.292969 Z M 164.921875 209.292969 "/></g><path style=" stroke:none;fill-rule:nonzero;fill:#374A6D;fill-opacity:1;" d="M 135.480469 171.820312 L 143.507812 171.820312 C 143.507812 159.773438 152.878906 150.40625 164.921875 150.40625 L 164.921875 142.375 C 147.523438 142.375 135.480469 154.421875 135.480469 171.820312 Z M 135.480469 171.820312 "/></g></svg>
